<mxfile host="app.diagrams.net" agent="Mozilla/5.0 (X11; Linux x86_64) AppleWebKit/537.36 (KHTML, like Gecko) Chrome/134.0.0.0 Safari/537.36" version="26.1.3">
  <diagram name="Page-1" id="IOK9gJUA3dInzgUJe6n0">
    <mxGraphModel dx="1164" dy="1243" grid="0" gridSize="10" guides="1" tooltips="1" connect="1" arrows="1" fold="1" page="0" pageScale="1" pageWidth="850" pageHeight="1100" math="0" shadow="0">
      <root>
        <mxCell id="0" />
        <mxCell id="1" parent="0" />
        <mxCell id="sUV5jRlzgA6wakfqvpII-58" value="" style="edgeStyle=none;curved=1;rounded=0;orthogonalLoop=1;jettySize=auto;html=1;fontSize=12;startSize=8;endSize=8;" edge="1" parent="1" source="sUV5jRlzgA6wakfqvpII-2" target="sUV5jRlzgA6wakfqvpII-42">
          <mxGeometry relative="1" as="geometry" />
        </mxCell>
        <mxCell id="sUV5jRlzgA6wakfqvpII-2" value="Cases of IPv4Â " style="shape=table;childLayout=tableLayout;startSize=40;collapsible=0;recursiveResize=0;expand=0;fontSize=16;" vertex="1" parent="1">
          <mxGeometry x="-126" width="526" height="403.75" as="geometry" />
        </mxCell>
        <mxCell id="sUV5jRlzgA6wakfqvpII-3" value="" style="shape=tableRow;horizontal=0;swimlaneHead=0;swimlaneBody=0;top=0;left=0;strokeColor=inherit;bottom=0;right=0;dropTarget=0;fontStyle=0;fillColor=none;points=[[0,0.5],[1,0.5]];portConstraint=eastwest;startSize=40;collapsible=0;recursiveResize=0;expand=0;fontSize=16;" vertex="1" parent="sUV5jRlzgA6wakfqvpII-2">
          <mxGeometry y="40" width="526" height="124" as="geometry" />
        </mxCell>
        <mxCell id="sUV5jRlzgA6wakfqvpII-4" value="IP" style="swimlane;swimlaneHead=0;swimlaneBody=0;fontStyle=0;strokeColor=inherit;connectable=0;fillColor=none;startSize=40;collapsible=0;recursiveResize=0;expand=0;fontSize=16;" vertex="1" parent="sUV5jRlzgA6wakfqvpII-3">
          <mxGeometry x="40" width="161" height="124" as="geometry">
            <mxRectangle width="161" height="124" as="alternateBounds" />
          </mxGeometry>
        </mxCell>
        <mxCell id="sUV5jRlzgA6wakfqvpII-5" value="status" style="swimlane;swimlaneHead=0;swimlaneBody=0;fontStyle=0;strokeColor=inherit;connectable=0;fillColor=none;startSize=40;collapsible=0;recursiveResize=0;expand=0;fontSize=16;" vertex="1" parent="sUV5jRlzgA6wakfqvpII-3">
          <mxGeometry x="201" width="164" height="124" as="geometry">
            <mxRectangle width="164" height="124" as="alternateBounds" />
          </mxGeometry>
        </mxCell>
        <mxCell id="sUV5jRlzgA6wakfqvpII-6" value="usage" style="swimlane;swimlaneHead=0;swimlaneBody=0;fontStyle=0;strokeColor=inherit;connectable=0;fillColor=none;startSize=40;collapsible=0;recursiveResize=0;expand=0;fontSize=16;" vertex="1" parent="sUV5jRlzgA6wakfqvpII-3">
          <mxGeometry x="365" width="161" height="124" as="geometry">
            <mxRectangle width="161" height="124" as="alternateBounds" />
          </mxGeometry>
        </mxCell>
        <mxCell id="sUV5jRlzgA6wakfqvpII-18" value="brodcast inside routes" style="text;html=1;align=center;verticalAlign=middle;resizable=0;points=[];autosize=1;strokeColor=none;fillColor=none;fontSize=16;" vertex="1" parent="sUV5jRlzgA6wakfqvpII-6">
          <mxGeometry x="-7" y="52.5" width="175" height="31" as="geometry" />
        </mxCell>
        <mxCell id="sUV5jRlzgA6wakfqvpII-7" value="" style="shape=tableRow;horizontal=0;swimlaneHead=0;swimlaneBody=0;top=0;left=0;strokeColor=inherit;bottom=0;right=0;dropTarget=0;fontStyle=0;fillColor=none;points=[[0,0.5],[1,0.5]];portConstraint=eastwest;startSize=40;collapsible=0;recursiveResize=0;expand=0;fontSize=16;" vertex="1" parent="sUV5jRlzgA6wakfqvpII-2">
          <mxGeometry y="164" width="526" height="120" as="geometry" />
        </mxCell>
        <mxCell id="sUV5jRlzgA6wakfqvpII-8" value="" style="swimlane;swimlaneHead=0;swimlaneBody=0;fontStyle=0;connectable=0;strokeColor=inherit;fillColor=none;startSize=0;collapsible=0;recursiveResize=0;expand=0;fontSize=16;" vertex="1" parent="sUV5jRlzgA6wakfqvpII-7">
          <mxGeometry x="40" width="161" height="120" as="geometry">
            <mxRectangle width="161" height="120" as="alternateBounds" />
          </mxGeometry>
        </mxCell>
        <mxCell id="sUV5jRlzgA6wakfqvpII-9" value="" style="swimlane;swimlaneHead=0;swimlaneBody=0;fontStyle=0;connectable=0;strokeColor=inherit;fillColor=none;startSize=0;collapsible=0;recursiveResize=0;expand=0;fontSize=16;" vertex="1" parent="sUV5jRlzgA6wakfqvpII-7">
          <mxGeometry x="201" width="164" height="120" as="geometry">
            <mxRectangle width="164" height="120" as="alternateBounds" />
          </mxGeometry>
        </mxCell>
        <mxCell id="sUV5jRlzgA6wakfqvpII-10" value="" style="swimlane;swimlaneHead=0;swimlaneBody=0;fontStyle=0;connectable=0;strokeColor=inherit;fillColor=none;startSize=0;collapsible=0;recursiveResize=0;expand=0;fontSize=16;" vertex="1" parent="sUV5jRlzgA6wakfqvpII-7">
          <mxGeometry x="365" width="161" height="120" as="geometry">
            <mxRectangle width="161" height="120" as="alternateBounds" />
          </mxGeometry>
        </mxCell>
        <mxCell id="sUV5jRlzgA6wakfqvpII-11" value="" style="shape=tableRow;horizontal=0;swimlaneHead=0;swimlaneBody=0;top=0;left=0;strokeColor=inherit;bottom=0;right=0;dropTarget=0;fontStyle=0;fillColor=none;points=[[0,0.5],[1,0.5]];portConstraint=eastwest;startSize=40;collapsible=0;recursiveResize=0;expand=0;fontSize=16;" vertex="1" parent="sUV5jRlzgA6wakfqvpII-2">
          <mxGeometry y="284" width="526" height="120" as="geometry" />
        </mxCell>
        <mxCell id="sUV5jRlzgA6wakfqvpII-12" value="" style="swimlane;swimlaneHead=0;swimlaneBody=0;fontStyle=0;connectable=0;strokeColor=inherit;fillColor=none;startSize=0;collapsible=0;recursiveResize=0;expand=0;fontSize=16;" vertex="1" parent="sUV5jRlzgA6wakfqvpII-11">
          <mxGeometry x="40" width="161" height="120" as="geometry">
            <mxRectangle width="161" height="120" as="alternateBounds" />
          </mxGeometry>
        </mxCell>
        <mxCell id="sUV5jRlzgA6wakfqvpII-22" value="8.8.8.8" style="text;html=1;align=center;verticalAlign=middle;resizable=0;points=[];autosize=1;strokeColor=none;fillColor=none;fontSize=16;" vertex="1" parent="sUV5jRlzgA6wakfqvpII-12">
          <mxGeometry x="53" y="40" width="67" height="31" as="geometry" />
        </mxCell>
        <mxCell id="sUV5jRlzgA6wakfqvpII-13" value="" style="swimlane;swimlaneHead=0;swimlaneBody=0;fontStyle=0;connectable=0;strokeColor=inherit;fillColor=none;startSize=0;collapsible=0;recursiveResize=0;expand=0;fontSize=16;" vertex="1" parent="sUV5jRlzgA6wakfqvpII-11">
          <mxGeometry x="201" width="164" height="120" as="geometry">
            <mxRectangle width="164" height="120" as="alternateBounds" />
          </mxGeometry>
        </mxCell>
        <mxCell id="sUV5jRlzgA6wakfqvpII-14" value="" style="swimlane;swimlaneHead=0;swimlaneBody=0;fontStyle=0;connectable=0;strokeColor=inherit;fillColor=none;startSize=0;collapsible=0;recursiveResize=0;expand=0;fontSize=16;" vertex="1" parent="sUV5jRlzgA6wakfqvpII-11">
          <mxGeometry x="365" width="161" height="120" as="geometry">
            <mxRectangle width="161" height="120" as="alternateBounds" />
          </mxGeometry>
        </mxCell>
        <mxCell id="sUV5jRlzgA6wakfqvpII-24" value="Google punlic DNS" style="text;html=1;align=center;verticalAlign=middle;resizable=0;points=[];autosize=1;strokeColor=none;fillColor=none;fontSize=16;" vertex="1" parent="sUV5jRlzgA6wakfqvpII-14">
          <mxGeometry x="4" y="33.5" width="154" height="31" as="geometry" />
        </mxCell>
        <mxCell id="sUV5jRlzgA6wakfqvpII-16" value="255.255.255.255&lt;br&gt;0.0.0.0" style="text;html=1;align=center;verticalAlign=middle;resizable=0;points=[];autosize=1;strokeColor=none;fillColor=none;fontSize=16;" vertex="1" parent="1">
          <mxGeometry x="-68.5" y="102.5" width="138" height="50" as="geometry" />
        </mxCell>
        <mxCell id="sUV5jRlzgA6wakfqvpII-17" value="valid" style="text;html=1;align=center;verticalAlign=middle;resizable=0;points=[];autosize=1;strokeColor=none;fillColor=none;fontSize=16;" vertex="1" parent="1">
          <mxGeometry x="117.5" y="92.5" width="51" height="31" as="geometry" />
        </mxCell>
        <mxCell id="sUV5jRlzgA6wakfqvpII-19" value="127.0.0.1" style="text;html=1;align=center;verticalAlign=middle;resizable=0;points=[];autosize=1;strokeColor=none;fillColor=none;fontSize=16;" vertex="1" parent="1">
          <mxGeometry x="-47.5" y="195.5" width="85" height="31" as="geometry" />
        </mxCell>
        <mxCell id="sUV5jRlzgA6wakfqvpII-20" value="valid" style="text;html=1;align=center;verticalAlign=middle;resizable=0;points=[];autosize=1;strokeColor=none;fillColor=none;fontSize=16;" vertex="1" parent="1">
          <mxGeometry x="129.5" y="195.5" width="51" height="31" as="geometry" />
        </mxCell>
        <mxCell id="sUV5jRlzgA6wakfqvpII-21" value="localhost&amp;nbsp;" style="text;html=1;align=center;verticalAlign=middle;resizable=0;points=[];autosize=1;strokeColor=none;fillColor=none;fontSize=16;" vertex="1" parent="1">
          <mxGeometry x="269.5" y="209.5" width="86" height="31" as="geometry" />
        </mxCell>
        <mxCell id="sUV5jRlzgA6wakfqvpII-23" value="valid" style="text;html=1;align=center;verticalAlign=middle;resizable=0;points=[];autosize=1;strokeColor=none;fillColor=none;fontSize=16;" vertex="1" parent="1">
          <mxGeometry x="134.5" y="317.5" width="51" height="31" as="geometry" />
        </mxCell>
        <mxCell id="sUV5jRlzgA6wakfqvpII-42" value="Cases of IPv4 Invalid" style="shape=table;childLayout=tableLayout;startSize=40;collapsible=0;recursiveResize=0;expand=0;fontSize=16;" vertex="1" parent="1">
          <mxGeometry x="-124" y="404" width="526" height="521" as="geometry" />
        </mxCell>
        <mxCell id="sUV5jRlzgA6wakfqvpII-43" value="" style="shape=tableRow;horizontal=0;swimlaneHead=0;swimlaneBody=0;top=0;left=0;strokeColor=inherit;bottom=0;right=0;dropTarget=0;fontStyle=0;fillColor=none;points=[[0,0.5],[1,0.5]];portConstraint=eastwest;startSize=40;collapsible=0;recursiveResize=0;expand=0;fontSize=16;" vertex="1" parent="sUV5jRlzgA6wakfqvpII-42">
          <mxGeometry y="40" width="526" height="163" as="geometry" />
        </mxCell>
        <mxCell id="sUV5jRlzgA6wakfqvpII-44" value="IP" style="swimlane;swimlaneHead=0;swimlaneBody=0;fontStyle=0;strokeColor=inherit;connectable=0;fillColor=none;startSize=40;collapsible=0;recursiveResize=0;expand=0;fontSize=16;" vertex="1" parent="sUV5jRlzgA6wakfqvpII-43">
          <mxGeometry x="40" width="161" height="163" as="geometry">
            <mxRectangle width="161" height="163" as="alternateBounds" />
          </mxGeometry>
        </mxCell>
        <mxCell id="sUV5jRlzgA6wakfqvpII-45" value="status" style="swimlane;swimlaneHead=0;swimlaneBody=0;fontStyle=0;strokeColor=inherit;connectable=0;fillColor=none;startSize=40;collapsible=0;recursiveResize=0;expand=0;fontSize=16;" vertex="1" parent="sUV5jRlzgA6wakfqvpII-43">
          <mxGeometry x="201" width="164" height="163" as="geometry">
            <mxRectangle width="164" height="163" as="alternateBounds" />
          </mxGeometry>
        </mxCell>
        <mxCell id="sUV5jRlzgA6wakfqvpII-46" value="usage" style="swimlane;swimlaneHead=0;swimlaneBody=0;fontStyle=0;strokeColor=inherit;connectable=0;fillColor=none;startSize=40;collapsible=0;recursiveResize=0;expand=0;fontSize=16;" vertex="1" parent="sUV5jRlzgA6wakfqvpII-43">
          <mxGeometry x="365" width="161" height="163" as="geometry">
            <mxRectangle width="161" height="163" as="alternateBounds" />
          </mxGeometry>
        </mxCell>
        <mxCell id="sUV5jRlzgA6wakfqvpII-47" value="-" style="text;html=1;align=center;verticalAlign=middle;resizable=0;points=[];autosize=1;strokeColor=none;fillColor=none;fontSize=16;" vertex="1" parent="sUV5jRlzgA6wakfqvpII-46">
          <mxGeometry x="69" y="66" width="23" height="31" as="geometry" />
        </mxCell>
        <mxCell id="sUV5jRlzgA6wakfqvpII-48" value="" style="shape=tableRow;horizontal=0;swimlaneHead=0;swimlaneBody=0;top=0;left=0;strokeColor=inherit;bottom=0;right=0;dropTarget=0;fontStyle=0;fillColor=none;points=[[0,0.5],[1,0.5]];portConstraint=eastwest;startSize=40;collapsible=0;recursiveResize=0;expand=0;fontSize=16;" vertex="1" parent="sUV5jRlzgA6wakfqvpII-42">
          <mxGeometry y="203" width="526" height="158" as="geometry" />
        </mxCell>
        <mxCell id="sUV5jRlzgA6wakfqvpII-49" value="" style="swimlane;swimlaneHead=0;swimlaneBody=0;fontStyle=0;connectable=0;strokeColor=inherit;fillColor=none;startSize=0;collapsible=0;recursiveResize=0;expand=0;fontSize=16;" vertex="1" parent="sUV5jRlzgA6wakfqvpII-48">
          <mxGeometry x="40" width="161" height="158" as="geometry">
            <mxRectangle width="161" height="158" as="alternateBounds" />
          </mxGeometry>
        </mxCell>
        <mxCell id="sUV5jRlzgA6wakfqvpII-50" value="" style="swimlane;swimlaneHead=0;swimlaneBody=0;fontStyle=0;connectable=0;strokeColor=inherit;fillColor=none;startSize=0;collapsible=0;recursiveResize=0;expand=0;fontSize=16;" vertex="1" parent="sUV5jRlzgA6wakfqvpII-48">
          <mxGeometry x="201" width="164" height="158" as="geometry">
            <mxRectangle width="164" height="158" as="alternateBounds" />
          </mxGeometry>
        </mxCell>
        <mxCell id="sUV5jRlzgA6wakfqvpII-63" value="invalid" style="text;html=1;align=center;verticalAlign=middle;resizable=0;points=[];autosize=1;strokeColor=none;fillColor=none;fontSize=16;" vertex="1" parent="sUV5jRlzgA6wakfqvpII-50">
          <mxGeometry x="50.5" y="58" width="63" height="31" as="geometry" />
        </mxCell>
        <mxCell id="sUV5jRlzgA6wakfqvpII-51" value="" style="swimlane;swimlaneHead=0;swimlaneBody=0;fontStyle=0;connectable=0;strokeColor=inherit;fillColor=none;startSize=0;collapsible=0;recursiveResize=0;expand=0;fontSize=16;" vertex="1" parent="sUV5jRlzgA6wakfqvpII-48">
          <mxGeometry x="365" width="161" height="158" as="geometry">
            <mxRectangle width="161" height="158" as="alternateBounds" />
          </mxGeometry>
        </mxCell>
        <mxCell id="sUV5jRlzgA6wakfqvpII-52" value="" style="shape=tableRow;horizontal=0;swimlaneHead=0;swimlaneBody=0;top=0;left=0;strokeColor=inherit;bottom=0;right=0;dropTarget=0;fontStyle=0;fillColor=none;points=[[0,0.5],[1,0.5]];portConstraint=eastwest;startSize=40;collapsible=0;recursiveResize=0;expand=0;fontSize=16;" vertex="1" parent="sUV5jRlzgA6wakfqvpII-42">
          <mxGeometry y="361" width="526" height="160" as="geometry" />
        </mxCell>
        <mxCell id="sUV5jRlzgA6wakfqvpII-53" value="" style="swimlane;swimlaneHead=0;swimlaneBody=0;fontStyle=0;connectable=0;strokeColor=inherit;fillColor=none;startSize=0;collapsible=0;recursiveResize=0;expand=0;fontSize=16;" vertex="1" parent="sUV5jRlzgA6wakfqvpII-52">
          <mxGeometry x="40" width="161" height="160" as="geometry">
            <mxRectangle width="161" height="160" as="alternateBounds" />
          </mxGeometry>
        </mxCell>
        <mxCell id="sUV5jRlzgA6wakfqvpII-54" value="Forgetton Segment&lt;br&gt;192.80..0" style="text;html=1;align=center;verticalAlign=middle;resizable=0;points=[];autosize=1;strokeColor=none;fillColor=none;fontSize=16;" vertex="1" parent="sUV5jRlzgA6wakfqvpII-53">
          <mxGeometry x="3" y="45" width="155" height="50" as="geometry" />
        </mxCell>
        <mxCell id="sUV5jRlzgA6wakfqvpII-55" value="" style="swimlane;swimlaneHead=0;swimlaneBody=0;fontStyle=0;connectable=0;strokeColor=inherit;fillColor=none;startSize=0;collapsible=0;recursiveResize=0;expand=0;fontSize=16;" vertex="1" parent="sUV5jRlzgA6wakfqvpII-52">
          <mxGeometry x="201" width="164" height="160" as="geometry">
            <mxRectangle width="164" height="160" as="alternateBounds" />
          </mxGeometry>
        </mxCell>
        <mxCell id="sUV5jRlzgA6wakfqvpII-56" value="" style="swimlane;swimlaneHead=0;swimlaneBody=0;fontStyle=0;connectable=0;strokeColor=inherit;fillColor=none;startSize=0;collapsible=0;recursiveResize=0;expand=0;fontSize=16;" vertex="1" parent="sUV5jRlzgA6wakfqvpII-52">
          <mxGeometry x="365" width="161" height="160" as="geometry">
            <mxRectangle width="161" height="160" as="alternateBounds" />
          </mxGeometry>
        </mxCell>
        <mxCell id="sUV5jRlzgA6wakfqvpII-57" value="-" style="text;html=1;align=center;verticalAlign=middle;resizable=0;points=[];autosize=1;strokeColor=none;fillColor=none;fontSize=16;" vertex="1" parent="sUV5jRlzgA6wakfqvpII-56">
          <mxGeometry x="70" y="33.5" width="23" height="31" as="geometry" />
        </mxCell>
        <mxCell id="sUV5jRlzgA6wakfqvpII-60" value="Empty String" style="text;html=1;align=center;verticalAlign=middle;resizable=0;points=[];autosize=1;strokeColor=none;fillColor=none;fontSize=16;" vertex="1" parent="1">
          <mxGeometry x="-66.5" y="517.5" width="110" height="31" as="geometry" />
        </mxCell>
        <mxCell id="sUV5jRlzgA6wakfqvpII-61" value="invalid" style="text;html=1;align=center;verticalAlign=middle;resizable=0;points=[];autosize=1;strokeColor=none;fillColor=none;fontSize=16;" vertex="1" parent="1">
          <mxGeometry x="124.5" y="524.5" width="63" height="31" as="geometry" />
        </mxCell>
        <mxCell id="sUV5jRlzgA6wakfqvpII-62" value="Out of range" style="text;html=1;align=center;verticalAlign=middle;resizable=0;points=[];autosize=1;strokeColor=none;fillColor=none;fontSize=16;" vertex="1" parent="1">
          <mxGeometry x="-59.5" y="662.5" width="107" height="31" as="geometry" />
        </mxCell>
        <mxCell id="sUV5jRlzgA6wakfqvpII-65" value="192.0.2.256" style="text;html=1;align=center;verticalAlign=middle;resizable=0;points=[];autosize=1;strokeColor=none;fillColor=none;fontSize=16;" vertex="1" parent="1">
          <mxGeometry x="-67.5" y="708.5" width="103" height="31" as="geometry" />
        </mxCell>
        <mxCell id="sUV5jRlzgA6wakfqvpII-66" value="-" style="text;html=1;align=center;verticalAlign=middle;resizable=0;points=[];autosize=1;strokeColor=none;fillColor=none;fontSize=16;" vertex="1" parent="1">
          <mxGeometry x="317.5" y="671.5" width="23" height="31" as="geometry" />
        </mxCell>
        <mxCell id="sUV5jRlzgA6wakfqvpII-68" value="" style="shape=table;startSize=0;container=1;collapsible=0;childLayout=tableLayout;fontSize=16;" vertex="1" parent="1">
          <mxGeometry x="-124" y="926" width="530" height="273.5" as="geometry" />
        </mxCell>
        <mxCell id="sUV5jRlzgA6wakfqvpII-69" value="" style="shape=tableRow;horizontal=0;startSize=0;swimlaneHead=0;swimlaneBody=0;strokeColor=inherit;top=0;left=0;bottom=0;right=0;collapsible=0;dropTarget=0;fillColor=none;points=[[0,0.5],[1,0.5]];portConstraint=eastwest;fontSize=16;" vertex="1" parent="sUV5jRlzgA6wakfqvpII-68">
          <mxGeometry width="530" height="85" as="geometry" />
        </mxCell>
        <mxCell id="sUV5jRlzgA6wakfqvpII-70" value="Invalid Number of segments&lt;br&gt;192.50.50" style="shape=partialRectangle;html=1;whiteSpace=wrap;connectable=0;strokeColor=inherit;overflow=hidden;fillColor=none;top=0;left=0;bottom=0;right=0;pointerEvents=1;fontSize=16;" vertex="1" parent="sUV5jRlzgA6wakfqvpII-69">
          <mxGeometry width="177" height="85" as="geometry">
            <mxRectangle width="177" height="85" as="alternateBounds" />
          </mxGeometry>
        </mxCell>
        <mxCell id="sUV5jRlzgA6wakfqvpII-71" value="invalid" style="shape=partialRectangle;html=1;whiteSpace=wrap;connectable=0;strokeColor=inherit;overflow=hidden;fillColor=none;top=0;left=0;bottom=0;right=0;pointerEvents=1;fontSize=16;" vertex="1" parent="sUV5jRlzgA6wakfqvpII-69">
          <mxGeometry x="177" width="176" height="85" as="geometry">
            <mxRectangle width="176" height="85" as="alternateBounds" />
          </mxGeometry>
        </mxCell>
        <mxCell id="sUV5jRlzgA6wakfqvpII-72" value="-" style="shape=partialRectangle;html=1;whiteSpace=wrap;connectable=0;strokeColor=inherit;overflow=hidden;fillColor=none;top=0;left=0;bottom=0;right=0;pointerEvents=1;fontSize=16;" vertex="1" parent="sUV5jRlzgA6wakfqvpII-69">
          <mxGeometry x="353" width="177" height="85" as="geometry">
            <mxRectangle width="177" height="85" as="alternateBounds" />
          </mxGeometry>
        </mxCell>
        <mxCell id="sUV5jRlzgA6wakfqvpII-73" value="" style="shape=tableRow;horizontal=0;startSize=0;swimlaneHead=0;swimlaneBody=0;strokeColor=inherit;top=0;left=0;bottom=0;right=0;collapsible=0;dropTarget=0;fillColor=none;points=[[0,0.5],[1,0.5]];portConstraint=eastwest;fontSize=16;" vertex="1" parent="sUV5jRlzgA6wakfqvpII-68">
          <mxGeometry y="85" width="530" height="89" as="geometry" />
        </mxCell>
        <mxCell id="sUV5jRlzgA6wakfqvpII-74" value="&lt;span style=&quot;color: rgb(0, 0, 0); font-family: Helvetica; font-size: 16px; font-style: normal; font-variant-ligatures: normal; font-variant-caps: normal; font-weight: 400; letter-spacing: normal; orphans: 2; text-align: center; text-indent: 0px; text-transform: none; widows: 2; word-spacing: 0px; -webkit-text-stroke-width: 0px; white-space: normal; background-color: rgb(255, 255, 255); text-decoration-thickness: initial; text-decoration-style: initial; text-decoration-color: initial; float: none; display: inline !important;&quot;&gt;Invalid Number of segments&lt;br&gt;&lt;/span&gt;192.50.50.50.50" style="shape=partialRectangle;html=1;whiteSpace=wrap;connectable=0;strokeColor=inherit;overflow=hidden;fillColor=none;top=0;left=0;bottom=0;right=0;pointerEvents=1;fontSize=16;" vertex="1" parent="sUV5jRlzgA6wakfqvpII-73">
          <mxGeometry width="177" height="89" as="geometry">
            <mxRectangle width="177" height="89" as="alternateBounds" />
          </mxGeometry>
        </mxCell>
        <mxCell id="sUV5jRlzgA6wakfqvpII-75" value="invalid" style="shape=partialRectangle;html=1;whiteSpace=wrap;connectable=0;strokeColor=inherit;overflow=hidden;fillColor=none;top=0;left=0;bottom=0;right=0;pointerEvents=1;fontSize=16;" vertex="1" parent="sUV5jRlzgA6wakfqvpII-73">
          <mxGeometry x="177" width="176" height="89" as="geometry">
            <mxRectangle width="176" height="89" as="alternateBounds" />
          </mxGeometry>
        </mxCell>
        <mxCell id="sUV5jRlzgA6wakfqvpII-76" value="-" style="shape=partialRectangle;html=1;whiteSpace=wrap;connectable=0;strokeColor=inherit;overflow=hidden;fillColor=none;top=0;left=0;bottom=0;right=0;pointerEvents=1;fontSize=16;" vertex="1" parent="sUV5jRlzgA6wakfqvpII-73">
          <mxGeometry x="353" width="177" height="89" as="geometry">
            <mxRectangle width="177" height="89" as="alternateBounds" />
          </mxGeometry>
        </mxCell>
        <mxCell id="sUV5jRlzgA6wakfqvpII-77" value="" style="shape=tableRow;horizontal=0;startSize=0;swimlaneHead=0;swimlaneBody=0;strokeColor=inherit;top=0;left=0;bottom=0;right=0;collapsible=0;dropTarget=0;fillColor=none;points=[[0,0.5],[1,0.5]];portConstraint=eastwest;fontSize=16;" vertex="1" parent="sUV5jRlzgA6wakfqvpII-68">
          <mxGeometry y="174" width="530" height="100" as="geometry" />
        </mxCell>
        <mxCell id="sUV5jRlzgA6wakfqvpII-78" value="negative segment&lt;br&gt;192.-1.1.1" style="shape=partialRectangle;html=1;whiteSpace=wrap;connectable=0;strokeColor=inherit;overflow=hidden;fillColor=none;top=0;left=0;bottom=0;right=0;pointerEvents=1;fontSize=16;" vertex="1" parent="sUV5jRlzgA6wakfqvpII-77">
          <mxGeometry width="177" height="100" as="geometry">
            <mxRectangle width="177" height="100" as="alternateBounds" />
          </mxGeometry>
        </mxCell>
        <mxCell id="sUV5jRlzgA6wakfqvpII-79" value="invalid" style="shape=partialRectangle;html=1;whiteSpace=wrap;connectable=0;strokeColor=inherit;overflow=hidden;fillColor=none;top=0;left=0;bottom=0;right=0;pointerEvents=1;fontSize=16;" vertex="1" parent="sUV5jRlzgA6wakfqvpII-77">
          <mxGeometry x="177" width="176" height="100" as="geometry">
            <mxRectangle width="176" height="100" as="alternateBounds" />
          </mxGeometry>
        </mxCell>
        <mxCell id="sUV5jRlzgA6wakfqvpII-80" value="-" style="shape=partialRectangle;html=1;whiteSpace=wrap;connectable=0;strokeColor=inherit;overflow=hidden;fillColor=none;top=0;left=0;bottom=0;right=0;pointerEvents=1;fontSize=16;" vertex="1" parent="sUV5jRlzgA6wakfqvpII-77">
          <mxGeometry x="353" width="177" height="100" as="geometry">
            <mxRectangle width="177" height="100" as="alternateBounds" />
          </mxGeometry>
        </mxCell>
        <mxCell id="sUV5jRlzgA6wakfqvpII-81" value="invalid" style="text;html=1;align=center;verticalAlign=middle;resizable=0;points=[];autosize=1;strokeColor=none;fillColor=none;fontSize=16;" vertex="1" parent="1">
          <mxGeometry x="132.5" y="819.5" width="63" height="31" as="geometry" />
        </mxCell>
        <mxCell id="sUV5jRlzgA6wakfqvpII-82" value="" style="shape=table;startSize=0;container=1;collapsible=0;childLayout=tableLayout;fontSize=16;" vertex="1" parent="1">
          <mxGeometry x="-126" y="1199.5" width="531.5" height="329.75" as="geometry" />
        </mxCell>
        <mxCell id="sUV5jRlzgA6wakfqvpII-83" value="" style="shape=tableRow;horizontal=0;startSize=0;swimlaneHead=0;swimlaneBody=0;strokeColor=inherit;top=0;left=0;bottom=0;right=0;collapsible=0;dropTarget=0;fillColor=none;points=[[0,0.5],[1,0.5]];portConstraint=eastwest;fontSize=16;" vertex="1" parent="sUV5jRlzgA6wakfqvpII-82">
          <mxGeometry width="531.5" height="111" as="geometry" />
        </mxCell>
        <mxCell id="sUV5jRlzgA6wakfqvpII-84" value="prefix zero segment&lt;br&gt;&lt;br&gt;192.168.001.1" style="shape=partialRectangle;html=1;whiteSpace=wrap;connectable=0;strokeColor=inherit;overflow=hidden;fillColor=none;top=0;left=0;bottom=0;right=0;pointerEvents=1;fontSize=16;" vertex="1" parent="sUV5jRlzgA6wakfqvpII-83">
          <mxGeometry width="179" height="111" as="geometry">
            <mxRectangle width="179" height="111" as="alternateBounds" />
          </mxGeometry>
        </mxCell>
        <mxCell id="sUV5jRlzgA6wakfqvpII-85" value="invalid" style="shape=partialRectangle;html=1;whiteSpace=wrap;connectable=0;strokeColor=inherit;overflow=hidden;fillColor=none;top=0;left=0;bottom=0;right=0;pointerEvents=1;fontSize=16;" vertex="1" parent="sUV5jRlzgA6wakfqvpII-83">
          <mxGeometry x="179" width="176" height="111" as="geometry">
            <mxRectangle width="176" height="111" as="alternateBounds" />
          </mxGeometry>
        </mxCell>
        <mxCell id="sUV5jRlzgA6wakfqvpII-86" value="-" style="shape=partialRectangle;html=1;whiteSpace=wrap;connectable=0;strokeColor=inherit;overflow=hidden;fillColor=none;top=0;left=0;bottom=0;right=0;pointerEvents=1;fontSize=16;" vertex="1" parent="sUV5jRlzgA6wakfqvpII-83">
          <mxGeometry x="355" width="177" height="111" as="geometry">
            <mxRectangle width="177" height="111" as="alternateBounds" />
          </mxGeometry>
        </mxCell>
        <mxCell id="sUV5jRlzgA6wakfqvpII-87" value="" style="shape=tableRow;horizontal=0;startSize=0;swimlaneHead=0;swimlaneBody=0;strokeColor=inherit;top=0;left=0;bottom=0;right=0;collapsible=0;dropTarget=0;fillColor=none;points=[[0,0.5],[1,0.5]];portConstraint=eastwest;fontSize=16;" vertex="1" parent="sUV5jRlzgA6wakfqvpII-82">
          <mxGeometry y="111" width="531.5" height="109" as="geometry" />
        </mxCell>
        <mxCell id="sUV5jRlzgA6wakfqvpII-88" value="whitespaces&lt;br&gt;&lt;br&gt;192.168&amp;nbsp; 1.1&lt;br&gt;&quot; 192.168.1.1 &quot;" style="shape=partialRectangle;html=1;whiteSpace=wrap;connectable=0;strokeColor=inherit;overflow=hidden;fillColor=none;top=0;left=0;bottom=0;right=0;pointerEvents=1;fontSize=16;" vertex="1" parent="sUV5jRlzgA6wakfqvpII-87">
          <mxGeometry width="179" height="109" as="geometry">
            <mxRectangle width="179" height="109" as="alternateBounds" />
          </mxGeometry>
        </mxCell>
        <mxCell id="sUV5jRlzgA6wakfqvpII-89" value="invalid" style="shape=partialRectangle;html=1;whiteSpace=wrap;connectable=0;strokeColor=inherit;overflow=hidden;fillColor=none;top=0;left=0;bottom=0;right=0;pointerEvents=1;fontSize=16;" vertex="1" parent="sUV5jRlzgA6wakfqvpII-87">
          <mxGeometry x="179" width="176" height="109" as="geometry">
            <mxRectangle width="176" height="109" as="alternateBounds" />
          </mxGeometry>
        </mxCell>
        <mxCell id="sUV5jRlzgA6wakfqvpII-90" value="-" style="shape=partialRectangle;html=1;whiteSpace=wrap;connectable=0;strokeColor=inherit;overflow=hidden;fillColor=none;top=0;left=0;bottom=0;right=0;pointerEvents=1;fontSize=16;" vertex="1" parent="sUV5jRlzgA6wakfqvpII-87">
          <mxGeometry x="355" width="177" height="109" as="geometry">
            <mxRectangle width="177" height="109" as="alternateBounds" />
          </mxGeometry>
        </mxCell>
        <mxCell id="sUV5jRlzgA6wakfqvpII-91" value="" style="shape=tableRow;horizontal=0;startSize=0;swimlaneHead=0;swimlaneBody=0;strokeColor=inherit;top=0;left=0;bottom=0;right=0;collapsible=0;dropTarget=0;fillColor=none;points=[[0,0.5],[1,0.5]];portConstraint=eastwest;fontSize=16;" vertex="1" parent="sUV5jRlzgA6wakfqvpII-82">
          <mxGeometry y="220" width="531.5" height="110" as="geometry" />
        </mxCell>
        <mxCell id="sUV5jRlzgA6wakfqvpII-92" value="character not digite&lt;br&gt;&lt;br&gt;192.168.1.1a" style="shape=partialRectangle;html=1;whiteSpace=wrap;connectable=0;strokeColor=inherit;overflow=hidden;fillColor=none;top=0;left=0;bottom=0;right=0;pointerEvents=1;fontSize=16;" vertex="1" parent="sUV5jRlzgA6wakfqvpII-91">
          <mxGeometry width="179" height="110" as="geometry">
            <mxRectangle width="179" height="110" as="alternateBounds" />
          </mxGeometry>
        </mxCell>
        <mxCell id="sUV5jRlzgA6wakfqvpII-93" value="invalid" style="shape=partialRectangle;html=1;whiteSpace=wrap;connectable=0;strokeColor=inherit;overflow=hidden;fillColor=none;top=0;left=0;bottom=0;right=0;pointerEvents=1;fontSize=16;" vertex="1" parent="sUV5jRlzgA6wakfqvpII-91">
          <mxGeometry x="179" width="176" height="110" as="geometry">
            <mxRectangle width="176" height="110" as="alternateBounds" />
          </mxGeometry>
        </mxCell>
        <mxCell id="sUV5jRlzgA6wakfqvpII-94" value="" style="shape=partialRectangle;html=1;whiteSpace=wrap;connectable=0;strokeColor=inherit;overflow=hidden;fillColor=none;top=0;left=0;bottom=0;right=0;pointerEvents=1;fontSize=16;" vertex="1" parent="sUV5jRlzgA6wakfqvpII-91">
          <mxGeometry x="355" width="177" height="110" as="geometry">
            <mxRectangle width="177" height="110" as="alternateBounds" />
          </mxGeometry>
        </mxCell>
        <mxCell id="sUV5jRlzgA6wakfqvpII-98" style="edgeStyle=none;curved=1;rounded=0;orthogonalLoop=1;jettySize=auto;html=1;fontSize=12;startSize=8;endSize=8;" edge="1" parent="1" source="sUV5jRlzgA6wakfqvpII-97">
          <mxGeometry relative="1" as="geometry">
            <mxPoint x="837" y="107" as="targetPoint" />
          </mxGeometry>
        </mxCell>
        <mxCell id="sUV5jRlzgA6wakfqvpII-97" value="Start" style="ellipse;whiteSpace=wrap;html=1;" vertex="1" parent="1">
          <mxGeometry x="775" y="-19" width="120" height="80" as="geometry" />
        </mxCell>
        <mxCell id="sUV5jRlzgA6wakfqvpII-102" style="edgeStyle=none;curved=1;rounded=0;orthogonalLoop=1;jettySize=auto;html=1;fontSize=12;startSize=8;endSize=8;" edge="1" parent="1" source="sUV5jRlzgA6wakfqvpII-99">
          <mxGeometry relative="1" as="geometry">
            <mxPoint x="659" y="167.5" as="targetPoint" />
          </mxGeometry>
        </mxCell>
        <mxCell id="sUV5jRlzgA6wakfqvpII-105" style="edgeStyle=none;curved=1;rounded=0;orthogonalLoop=1;jettySize=auto;html=1;fontSize=12;startSize=8;endSize=8;" edge="1" parent="1" source="sUV5jRlzgA6wakfqvpII-99">
          <mxGeometry relative="1" as="geometry">
            <mxPoint x="836.5" y="292" as="targetPoint" />
          </mxGeometry>
        </mxCell>
        <mxCell id="sUV5jRlzgA6wakfqvpII-99" value="IP is empty?" style="rhombus;whiteSpace=wrap;html=1;" vertex="1" parent="1">
          <mxGeometry x="775" y="112" width="123" height="111" as="geometry" />
        </mxCell>
        <mxCell id="sUV5jRlzgA6wakfqvpII-103" value="yes" style="text;html=1;align=center;verticalAlign=middle;resizable=0;points=[];autosize=1;strokeColor=none;fillColor=none;fontSize=16;" vertex="1" parent="1">
          <mxGeometry x="696.5" y="139.5" width="43" height="31" as="geometry" />
        </mxCell>
        <mxCell id="sUV5jRlzgA6wakfqvpII-104" value="Return false" style="rounded=1;whiteSpace=wrap;html=1;" vertex="1" parent="1">
          <mxGeometry x="531" y="144" width="120" height="60" as="geometry" />
        </mxCell>
        <mxCell id="sUV5jRlzgA6wakfqvpII-106" value="No" style="text;html=1;align=center;verticalAlign=middle;resizable=0;points=[];autosize=1;strokeColor=none;fillColor=none;fontSize=16;" vertex="1" parent="1">
          <mxGeometry x="838.5" y="232" width="38" height="31" as="geometry" />
        </mxCell>
        <mxCell id="sUV5jRlzgA6wakfqvpII-108" style="edgeStyle=none;curved=1;rounded=0;orthogonalLoop=1;jettySize=auto;html=1;fontSize=12;startSize=8;endSize=8;" edge="1" parent="1" source="sUV5jRlzgA6wakfqvpII-107">
          <mxGeometry relative="1" as="geometry">
            <mxPoint x="836.5" y="485" as="targetPoint" />
          </mxGeometry>
        </mxCell>
        <mxCell id="sUV5jRlzgA6wakfqvpII-114" style="edgeStyle=none;curved=1;rounded=0;orthogonalLoop=1;jettySize=auto;html=1;fontSize=12;startSize=8;endSize=8;" edge="1" parent="1" source="sUV5jRlzgA6wakfqvpII-107">
          <mxGeometry relative="1" as="geometry">
            <mxPoint x="1013" y="355" as="targetPoint" />
          </mxGeometry>
        </mxCell>
        <mxCell id="sUV5jRlzgA6wakfqvpII-107" value="Length of Segments&lt;br&gt;&lt;span style=&quot;color: rgb(31, 31, 31); font-family: &amp;quot;Noto Naskh Arabic UI&amp;quot;, Arial, sans-serif; font-size: 20px; text-align: start;&quot;&gt;â  4&lt;/span&gt;" style="rhombus;whiteSpace=wrap;html=1;" vertex="1" parent="1">
          <mxGeometry x="773.5" y="293" width="123" height="111" as="geometry" />
        </mxCell>
        <mxCell id="sUV5jRlzgA6wakfqvpII-110" style="edgeStyle=none;curved=1;rounded=0;orthogonalLoop=1;jettySize=auto;html=1;fontSize=12;startSize=8;endSize=8;" edge="1" parent="1" source="sUV5jRlzgA6wakfqvpII-109">
          <mxGeometry relative="1" as="geometry">
            <mxPoint x="836.5" y="648" as="targetPoint" />
          </mxGeometry>
        </mxCell>
        <mxCell id="sUV5jRlzgA6wakfqvpII-119" style="edgeStyle=none;curved=1;rounded=0;orthogonalLoop=1;jettySize=auto;html=1;fontSize=12;startSize=8;endSize=8;" edge="1" parent="1" source="sUV5jRlzgA6wakfqvpII-109">
          <mxGeometry relative="1" as="geometry">
            <mxPoint x="646" y="544.5" as="targetPoint" />
          </mxGeometry>
        </mxCell>
        <mxCell id="sUV5jRlzgA6wakfqvpII-109" value="Segment Empty&amp;nbsp;&lt;br&gt;?" style="rhombus;whiteSpace=wrap;html=1;" vertex="1" parent="1">
          <mxGeometry x="775" y="489" width="123" height="111" as="geometry" />
        </mxCell>
        <mxCell id="sUV5jRlzgA6wakfqvpII-112" style="edgeStyle=none;curved=1;rounded=0;orthogonalLoop=1;jettySize=auto;html=1;fontSize=12;startSize=8;endSize=8;" edge="1" parent="1" source="sUV5jRlzgA6wakfqvpII-111">
          <mxGeometry relative="1" as="geometry">
            <mxPoint x="683" y="709.5" as="targetPoint" />
          </mxGeometry>
        </mxCell>
        <mxCell id="sUV5jRlzgA6wakfqvpII-125" style="edgeStyle=none;curved=1;rounded=0;orthogonalLoop=1;jettySize=auto;html=1;fontSize=12;startSize=8;endSize=8;" edge="1" parent="1" source="sUV5jRlzgA6wakfqvpII-111">
          <mxGeometry relative="1" as="geometry">
            <mxPoint x="836.5" y="846" as="targetPoint" />
          </mxGeometry>
        </mxCell>
        <mxCell id="sUV5jRlzgA6wakfqvpII-111" value="Segment not digit&lt;br&gt;?" style="rhombus;whiteSpace=wrap;html=1;" vertex="1" parent="1">
          <mxGeometry x="775" y="654" width="123" height="111" as="geometry" />
        </mxCell>
        <mxCell id="sUV5jRlzgA6wakfqvpII-113" value="Yes" style="text;html=1;align=center;verticalAlign=middle;resizable=0;points=[];autosize=1;strokeColor=none;fillColor=none;fontSize=16;" vertex="1" parent="1">
          <mxGeometry x="712.5" y="677.5" width="44" height="31" as="geometry" />
        </mxCell>
        <mxCell id="sUV5jRlzgA6wakfqvpII-115" value="Yes" style="text;html=1;align=center;verticalAlign=middle;resizable=0;points=[];autosize=1;strokeColor=none;fillColor=none;fontSize=16;" vertex="1" parent="1">
          <mxGeometry x="915.5" y="312.5" width="44" height="31" as="geometry" />
        </mxCell>
        <mxCell id="sUV5jRlzgA6wakfqvpII-116" value="Return false" style="rounded=1;whiteSpace=wrap;html=1;" vertex="1" parent="1">
          <mxGeometry x="1022" y="327" width="120" height="60" as="geometry" />
        </mxCell>
        <mxCell id="sUV5jRlzgA6wakfqvpII-117" value="No" style="text;html=1;align=center;verticalAlign=middle;resizable=0;points=[];autosize=1;strokeColor=none;fillColor=none;fontSize=16;" vertex="1" parent="1">
          <mxGeometry x="838.5" y="413.5" width="38" height="31" as="geometry" />
        </mxCell>
        <mxCell id="sUV5jRlzgA6wakfqvpII-118" value="No" style="text;html=1;align=center;verticalAlign=middle;resizable=0;points=[];autosize=1;strokeColor=none;fillColor=none;fontSize=16;" vertex="1" parent="1">
          <mxGeometry x="845" y="604" width="38" height="31" as="geometry" />
        </mxCell>
        <mxCell id="sUV5jRlzgA6wakfqvpII-120" value="Yes" style="text;html=1;align=center;verticalAlign=middle;resizable=0;points=[];autosize=1;strokeColor=none;fillColor=none;fontSize=16;" vertex="1" parent="1">
          <mxGeometry x="705.5" y="510.5" width="44" height="31" as="geometry" />
        </mxCell>
        <mxCell id="sUV5jRlzgA6wakfqvpII-121" value="Return false" style="rounded=1;whiteSpace=wrap;html=1;" vertex="1" parent="1">
          <mxGeometry x="509" y="514.5" width="120" height="60" as="geometry" />
        </mxCell>
        <mxCell id="sUV5jRlzgA6wakfqvpII-124" value="Return false" style="rounded=1;whiteSpace=wrap;html=1;" vertex="1" parent="1">
          <mxGeometry x="558" y="682" width="120" height="60" as="geometry" />
        </mxCell>
        <mxCell id="sUV5jRlzgA6wakfqvpII-126" value="No" style="text;html=1;align=center;verticalAlign=middle;resizable=0;points=[];autosize=1;strokeColor=none;fillColor=none;fontSize=16;" vertex="1" parent="1">
          <mxGeometry x="836.5" y="779.5" width="38" height="31" as="geometry" />
        </mxCell>
        <mxCell id="sUV5jRlzgA6wakfqvpII-128" style="edgeStyle=none;curved=1;rounded=0;orthogonalLoop=1;jettySize=auto;html=1;fontSize=12;startSize=8;endSize=8;" edge="1" parent="1" source="sUV5jRlzgA6wakfqvpII-127">
          <mxGeometry relative="1" as="geometry">
            <mxPoint x="682" y="906" as="targetPoint" />
          </mxGeometry>
        </mxCell>
        <mxCell id="sUV5jRlzgA6wakfqvpII-132" style="edgeStyle=none;curved=1;rounded=0;orthogonalLoop=1;jettySize=auto;html=1;exitX=0.5;exitY=1;exitDx=0;exitDy=0;fontSize=12;startSize=8;endSize=8;" edge="1" parent="1" source="sUV5jRlzgA6wakfqvpII-127">
          <mxGeometry relative="1" as="geometry">
            <mxPoint x="835" y="1033" as="targetPoint" />
          </mxGeometry>
        </mxCell>
        <mxCell id="sUV5jRlzgA6wakfqvpII-127" value="Segment not&amp;nbsp;&lt;br&gt;in 0..255" style="rhombus;whiteSpace=wrap;html=1;" vertex="1" parent="1">
          <mxGeometry x="773.5" y="850.5" width="123" height="111" as="geometry" />
        </mxCell>
        <mxCell id="sUV5jRlzgA6wakfqvpII-129" value="Yes" style="text;html=1;align=center;verticalAlign=middle;resizable=0;points=[];autosize=1;strokeColor=none;fillColor=none;fontSize=16;" vertex="1" parent="1">
          <mxGeometry x="723" y="874" width="44" height="31" as="geometry" />
        </mxCell>
        <mxCell id="sUV5jRlzgA6wakfqvpII-131" value="Return false" style="rounded=1;whiteSpace=wrap;html=1;" vertex="1" parent="1">
          <mxGeometry x="558" y="878" width="120" height="60" as="geometry" />
        </mxCell>
        <mxCell id="sUV5jRlzgA6wakfqvpII-134" value="Return true" style="ellipse;whiteSpace=wrap;html=1;" vertex="1" parent="1">
          <mxGeometry x="775" y="1033" width="120" height="80" as="geometry" />
        </mxCell>
      </root>
    </mxGraphModel>
  </diagram>
</mxfile>
